<svg id="圖層_1" data-name="圖層 1" xmlns="http://www.w3.org/2000/svg" viewBox="0 0 199.6 191.07"><defs><style>.cls-1{fill:#e06e31;}.cls-2{fill:#24387f;}</style></defs><path class="cls-1" d="M297.29,262.53c2.12.1,3.81-1.12,5.63-1.88,2.86-1.2,5-3.36,7.11-5.57,1.75-1.83,3.51-3.67,5.42-5.32,3.65-3.16,6.93-6.76,11.13-9.26a22.88,22.88,0,0,1,7.5-3.23,16.59,16.59,0,0,1,8.78.51,12.64,12.64,0,0,1,4.83,3.69c1.7,2,2.24,4.44,2.81,6.84a69.18,69.18,0,0,1,1.13,7.18c.32,2.61-.91,4.87-1.8,7.2s-1.75,4.64-2.67,6.94a7.39,7.39,0,0,1-1,1.67,12.55,12.55,0,0,0-2.49,4.94c-.27,1.21-1.23,1.92-1.87,2.79a59.11,59.11,0,0,0-3.93,5.58c-1.33,2.33-3.55,3.57-5.68,4.88-1.87,1.15-3.59,2.51-5.41,3.71a6.37,6.37,0,0,1-1.41,1c-3.59,1.29-6.71,3.49-10.05,5.25a43.55,43.55,0,0,1-5.84,2.2c-2.65.93-5.22,2.12-7.92,2.84-2.95.78-5.76,2-8.77,2.55a5.19,5.19,0,0,0-1.33.57,8,8,0,0,1-4,.94,4.1,4.1,0,0,0-2.42.3,2.05,2.05,0,0,1-1.68.07,7.61,7.61,0,0,0-3.88-.39,85.43,85.43,0,0,1-12.08-.69c-3.8-.32-7.57-.15-11.35-.35-3.37-.17-6.71-.72-10.1-.49-2.31-1-4.84-.15-7.25-.88a6.89,6.89,0,0,0-4.38.2,5.14,5.14,0,0,1-2.2.15c-3.73-.18-7.18.89-10.63,2.17-3,1.11-5.9,2.49-9,3.44-1.58.49-3.14,1.19-4.72,1.76a28.86,28.86,0,0,1-11.54,1.6,12.16,12.16,0,0,1-4.64-1.2,51.84,51.84,0,0,1-8.07-4.27,43.91,43.91,0,0,1-5.75-4.51,6,6,0,0,1-1.62-2.14,2.91,2.91,0,0,0-1-1.38c-2.4-1.9-4.05-4.49-6-6.78a13,13,0,0,1-1.64-2.68,83.06,83.06,0,0,0-4.79-8.66,30.64,30.64,0,0,1-1.84-4.17c-.94-2.11-1.76-4.3-2.9-6.3A96.47,96.47,0,0,1,154,264a18.38,18.38,0,0,1-1.26-5.61c-.13-1.46-.84-2.82-.56-4.35.47-2.46.94-4.94,1.18-7.43.29-3.1,2.08-5.44,3.89-7.66s3-4.49,4.76-6.54c2.32-2.68,4.22-5.69,6.7-8.29a19.12,19.12,0,0,0,3.86-6.65,7.64,7.64,0,0,1,.66-1.52c1.76-2.48,2.18-5.49,3.38-8.19,2-4.4,3-9.14,5.12-13.49,1.16-2.35,1.77-5,2.77-7.41a89,89,0,0,1,6.84-13.05,15,15,0,0,0,1.32-2.3c1.48-3.65,3.64-7,4.95-10.7a9.94,9.94,0,0,1,1.27-2.07c.18-.27.56-.47.63-.75.92-3.56,3.93-5,6.75-6.53a23.74,23.74,0,0,0,5.13-3.21A9.56,9.56,0,0,1,214,147.1c5-2.37,10-4.81,14.81-7.56a41.82,41.82,0,0,1,7.76-3.27c3.63-1.17,7.26-2.44,10.81-3.89,1-.42,1.85-1.19,3-1.55,1.52-.49,3.06-.94,4.56-1.48,1.8-.65,3.46-1.69,5.25-2.36a40.46,40.46,0,0,1,7.88-2.17,59.4,59.4,0,0,1,11.61-.3c3.12.11,6.14,1.16,9.15,2.1,4.71,1.46,9,3.77,13.39,5.92a19.75,19.75,0,0,0,2.4,1,28.2,28.2,0,0,1,8.07,4.36,59.4,59.4,0,0,0,5.42,3.94c2.31,1.34,3.55,3.59,5.14,5.53,3.28,4,4.64,8.92,6.09,13.79a29.11,29.11,0,0,1,.91,9.72,9.58,9.58,0,0,1-4.33,7.34,12,12,0,0,1-6.57,2.13c-4.13.27-7.19-1.76-10.18-4a29.07,29.07,0,0,0-9.82-5.07,22.76,22.76,0,0,1-3.39-1.2,18.06,18.06,0,0,0-6.75-1.66c-3.37-.17-6.71-.93-10.1-.59-1.46.14-2.92.35-4.39.43a46.55,46.55,0,0,0-4.73.09,17.62,17.62,0,0,0-6.23,1.76,8.89,8.89,0,0,1-2.65,1.11c-4.32.79-8,2.9-11.58,5.27-3.36,2.22-3.32,2.26-6.05,6.17s-5.35,8.28-7.87,12.5-3.89,9.13-5.12,14a42.41,42.41,0,0,0-.55,4.6,85.5,85.5,0,0,0-.43,9.86c-.15,5.14,1.37,9.87,3.46,14.47.5,1.09.75,2.31,1.24,3.36a40.33,40.33,0,0,0,6.47,10.51c2.91,3.16,6.19,5.95,10.51,7.29,2.59.8,5.07,2,7.74,2.55a34.48,34.48,0,0,0,4.77.84,36.64,36.64,0,0,1,6.5.86,9.72,9.72,0,0,0,2.23,0,4.13,4.13,0,0,1,.93.26c2.95,1.64,6.14,1.9,9.43,1.8,1.9-.06,3.81,0,5.72,0a4.92,4.92,0,0,0,1.49-.05A34,34,0,0,0,297.29,262.53Z" transform="translate(-152.08 -124.38)"/><path class="cls-2" d="M297.29,262.53a34,34,0,0,1-7.33,3,4.92,4.92,0,0,1-1.49.05c-1.91,0-3.82,0-5.72,0-3.29.1-6.48-.16-9.43-1.8a4.13,4.13,0,0,0-.93-.26c-3.3-2.5-7-4.48-9.88-7.52a11.66,11.66,0,0,0-2-1.43,13.81,13.81,0,0,1-3.76-3.82,22,22,0,0,0-2.86-3.39c-1.48-1.45-2.26-3.37-3.24-5.15a49.85,49.85,0,0,1-5.12-14.56,86.31,86.31,0,0,1-1.24-8.72c-.25-2.79-.11-5.6-.47-8.36a108.1,108.1,0,0,0-2.09-10.7,32.73,32.73,0,0,1-.83-8.53,3,3,0,0,1,.33-1.16A14.26,14.26,0,0,1,247,183c.84-.5,1.52-1.41,2.41-1.68,2.94-.89,5.92-1.16,8.78.43.91.5,1.82,1,2.75,1.49a4.74,4.74,0,0,1,1.65,1.49,58.91,58.91,0,0,1,7.89,14.42c1.61,4.49,2.85,9.08,4.17,13.64.4,1.38.71,2.79,1.24,4.13a28.21,28.21,0,0,1,1.13,4.43A27.45,27.45,0,0,0,279,227a23.55,23.55,0,0,1,1.32,4.15c.57,2.13,2.33,2.8,4.13,3.4a1.81,1.81,0,0,0,1.42-.22c1.66-.92,3.29-1.81,3.92-3.79a5.69,5.69,0,0,1,.49-.89c0-3.62,0-7.27,0-10.93a100.12,100.12,0,0,0-.89-10.23c-.34-3.42-1.05-6.75-1.67-10.09A109.48,109.48,0,0,0,285.52,187a10.8,10.8,0,0,1,.82-7.67,7.73,7.73,0,0,1,4-3.46c3.88-1.86,7.93-1.46,11.9-.07a3.39,3.39,0,0,1,1,.73,24.83,24.83,0,0,1,7.58,11.52c.65,1.93.84,3.93,1.36,5.87.25.93.5,1.87.82,2.77a59.63,59.63,0,0,1,2.85,13c.29,2.39.17,4.77.48,7.13a48,48,0,0,1,.46,5.63,80.64,80.64,0,0,1-.91,10.75c-.29,2.44-1.06,4.77-1.21,7.23a13,13,0,0,1-1.49,4.3,60.29,60.29,0,0,1-4,6.9,43.93,43.93,0,0,1-4.18,5,21.53,21.53,0,0,1-7.45,5.48C297.42,262.19,297.37,262.4,297.29,262.53Z" transform="translate(-152.08 -124.38)"/></svg>